#!OML:ASF F:\VICON\USERDATA\INSTALL\rory3\rory3.ASF
:FULLY-SPECIFIED
:DEGREES
4061
root -7.88483 18.1131 13.5377 163.102 249.61 -520.5
lowerback 10.9242 1.62392 -1.80648
upperback 1.44574 1.88041 -0.410392
thorax -4.65793 0.939387 0.313088
lowerneck -13.8948 -4.81857 -12.5959
upperneck 37.2848 -6.53625 5.13065
head 16.311 -4.17009 3.19585
rclavicle -1.60022e-014 7.95139e-016
rhumerus -29.6192 -7.2334 -81.7492
rradius 42.4466
rwrist 0.47531
rhand -15.9614 8.82283
rfingers 7.12502
rthumb 10.2374 -20.908
lclavicle -1.60022e-014 7.95139e-016
lhumerus -41.6019 9.03941 83.9557
lradius 34.3677
lwrist -5.63493
lhand -17.8378 27.0942
lfingers 7.12502
lthumb 8.42685 56.9061
rfemur -24.551 -5.20362 13.7648
rtibia 24.97
rfoot 2.80111 -5.10014
rtoes 17.0407
lfemur 5.83682 -6.98356 -27.1547
ltibia 23.8105
lfoot 1.88105 -12.4163
ltoes -20.2071
4062
root -7.74969 18.1274 13.5482 162.443 249.87 -519.698
lowerback 10.9374 1.65407 -1.93733
upperback 1.49962 1.90072 -0.46544
thorax -4.61172 0.94996 0.326893
lowerneck -14.0466 -4.76909 -12.5784
upperneck 37.3139 -6.44609 5.13631
head 16.3506 -4.1273 3.21055
rclavicle 2.99171e-014 7.95139e-016
rhumerus -29.5225 -7.62092 -81.7306
rradius 42.6385
rwrist 0.526692
rhand -15.9781 9.03476
rfingers 7.12502
rthumb 10.2213 -20.6969
lclavicle 2.99171e-014 7.95139e-016
lhumerus -41.1379 8.97059 84.2014
lradius 34.1597
lwrist -5.63175
lhand -17.7618 27.0549
lfingers 7.12502
lthumb 8.50017 56.8638
rfemur -24.8244 -5.13154 13.2912
rtibia 24.3828
rfoot 3.77325 -4.73276
rtoes 17.8766
lfemur 5.73393 -6.52907 -27.5703
ltibia 23.1671
lfoot 1.44543 -12.0807
ltoes -21.1439
4063
root -7.61476 18.1371 13.5588 162.109 250.186 -519.201
lowerback 10.9099 1.75533 -1.92283
upperback 1.55538 2.03613 -0.481705
thorax -4.53997 1.01524 0.283588
lowerneck -14.1449 -4.81959 -12.6752
upperneck 37.273 -6.50074 5.21537
head 16.37 -4.14766 3.25035
rclavicle -2.92213e-014 1.59028e-015
rhumerus -29.503 -8.01005 -81.6316
rradius 42.9524
rwrist 0.324964
rhand -15.888 8.92638
rfingers 7.12502
rthumb 10.3082 -20.801
lclavicle -2.92213e-014 1.59028e-015
lhumerus -40.7082 8.75119 84.5447
lradius 34.014
lwrist -5.69183
lhand -17.9199 26.6595
lfingers 7.12502
lthumb 8.34763 56.4746
rfemur -25.1977 -5.12847 12.9899
rtibia 23.8756
rfoot 4.69984 -4.14523
rtoes 16.8561
lfemur 5.62551 -6.25398 -27.882
ltibia 22.4536
lfoot 0.850778 -11.6169
ltoes -22.4056
4064
root -7.48073 18.1484 13.5765 161.931 250.445 -518.945
lowerback 10.9461 1.77689 -1.80178
upperback 1.58623 2.07821 -0.470499
thorax -4.52473 1.03352 0.220591
lowerneck -14.1895 -4.82447 -12.6005
upperneck 37.235 -6.4607 5.06242
head 16.3456 -4.13752 3.17499
rclavicle 4.49253e-014 -8.74653e-015
rhumerus -29.5194 -8.33378 -81.5726
rradius 43.1688
rwrist 0.296204
rhand -15.8834 8.77321
rfingers 7.12502
rthumb 10.3127 -20.9539
lclavicle 4.49253e-014 -8.74653e-015
lhumerus -40.3758 8.60289 84.8574
lradius 33.9577
lwrist -5.67705
lhand -17.9731 26.7104
lfingers 7.12502
lthumb 8.29628 56.5275
rfemur -25.4595 -5.38923 12.762
rtibia 23.4014
rfoot 5.34765 -3.32198
rtoes 15.2579
lfemur 5.58547 -6.24368 -28.1557
ltibia 21.7732
lfoot 0.486041 -11.08
ltoes -22.703
4065
root -7.35221 18.1662 13.5912 162.007 250.808 -518.971
lowerback 10.9544 1.75065 -1.62785
upperback 1.59363 2.06496 -0.444027
thorax -4.51618 1.02421 0.152352
lowerneck -14.2293 -4.73087 -12.4644
upperneck 37.2599 -6.32079 4.95934
head 16.3374 -4.07582 3.13135
rclavicle 1.8487e-014 -5.56597e-015
rhumerus -29.5386 -8.7174 -81.6068
rradius 43.2753
rwrist 0.59151
rhand -15.9829 8.78211
rfingers 7.12502
rthumb 10.2166 -20.9498
lclavicle 1.8487e-014 -5.56597e-015
lhumerus -40.0762 8.54611 85.0112
lradius 33.9363
lwrist -5.50802
lhand -17.9457 26.9405
lfingers 7.12502
lthumb 8.32276 56.7566
rfemur -25.6815 -5.35728 12.5887
rtibia 22.9891
rfoot 5.62867 -2.66547
rtoes 14.886
lfemur 5.51229 -6.32538 -28.2431
ltibia 21.1529
lfoot 0.403368 -10.6425
ltoes -22.1202
4066
root -7.22696 18.1794 13.5972 162.277 251.306 -519.149
lowerback 10.9267 1.76927 -1.47574
upperback 1.57155 2.11011 -0.411931
thorax -4.52032 1.04462 0.094078
lowerneck -14.2195 -4.62961 -12.3607
upperneck 37.2566 -6.22057 4.99776
head 16.3147 -4.01685 3.14935
rclavicle 1.31198e-014 -1.11319e-014
rhumerus -29.6036 -9.05887 -81.722
rradius 43.4262
rwrist 0.616107
rhand -16.1332 8.67933
rfingers 7.12502
rthumb 10.0717 -21.0596
lclavicle 1.31198e-014 -1.11319e-014
lhumerus -39.7911 8.27308 85.1705
lradius 33.9108
lwrist -5.2287
lhand -18.0532 27.0251
lfingers 7.12502
lthumb 8.21898 56.8452
rfemur -25.9639 -4.85432 12.4287
rtibia 22.6855
rfoot 5.42049 -2.15433
rtoes 13.9161
lfemur 5.31248 -6.04468 -28.113
ltibia 20.6105
lfoot -0.0332863 -10.6045
ltoes -22.4452
4067
root -7.10375 18.1824 13.6031 162.117 251.729 -518.921
lowerback 10.9516 1.76695 -1.55221
upperback 1.55966 2.10069 -0.344821
thorax -4.55173 1.04182 0.207259
lowerneck -14.3031 -4.50972 -12.3416
upperneck 37.3411 -6.03864 4.9833
head 16.3535 -3.94503 3.1738
rclavicle 1.39149e-015 3.18055e-015
rhumerus -29.645 -9.12275 -81.7755
rradius 43.5395
rwrist 0.467135
rhand -16.063 8.5054
rfingers 7.12502
rthumb 10.1393 -21.2303
lclavicle 1.39149e-015 3.18055e-015
lhumerus -39.5806 8.05206 85.4704
lradius 33.9404
lwrist -5.05034
lhand -18.0961 27.1712
lfingers 7.12502
lthumb 8.17756 56.993
rfemur -26.2308 -4.80447 12.2681
rtibia 22.5214
rfoot 4.73889 -1.02059
rtoes 8.72117
lfemur 5.0922 -5.60474 -28.1076
ltibia 20.1934
lfoot -0.704581 -10.7734
ltoes -23.6975
4068
root -6.98192 18.1857 13.6087 161.973 252.082 -518.76
lowerback 10.9853 1.74414 -1.65083
upperback 1.59142 2.06418 -0.211525
thorax -4.54512 1.02584 0.406472
lowerneck -14.4531 -4.39842 -12.4507
upperneck 37.4125 -5.79887 4.9337
head 16.4011 -3.86938 3.21478
rclavicle 5.96354e-015 -1.11319e-014
rhumerus -29.5786 -9.25458 -81.7055
rradius 43.504
rwrist 0.44798
rhand -15.8965 8.50457
rfingers 7.12502
rthumb 10.3 -21.2232
lclavicle 5.96354e-015 -1.11319e-014
lhumerus -39.3312 7.96981 85.7979
lradius 33.9618
lwrist -5.12969
lhand -17.7619 26.9639
lfingers 7.12502
lthumb 8.50011 56.7728
rfemur -26.4889 -5.25596 12.2564
rtibia 22.5786
rfoot 3.62533 0.470688
rtoes 0.960874
lfemur 4.87497 -5.42391 -28.1305
ltibia 19.886
lfoot -0.945958 -10.6881
ltoes -23.8542
4069
root -6.85962 18.1903 13.6096 161.784 252.392 -518.549
lowerback 11.0681 1.7453 -1.75272
upperback 1.59506 2.05505 -0.135051
thorax -4.5935 1.02345 0.54237
lowerneck -14.4726 -4.30887 -12.4929
upperneck 37.4137 -5.60869 4.8356
head 16.3811 -3.81071 3.21342
rclavicle 4.92986e-014 -2.14687e-014
rhumerus -29.6076 -9.41723 -81.7008
rradius 43.524
rwrist 0.326129
rhand -16.0411 8.58708
rfingers 7.12502
rthumb 10.1605 -21.1476
lclavicle 4.92986e-014 -2.14687e-014
lhumerus -39.1847 7.69331 86.1015
lradius 34.1222
lwrist -5.14428
lhand -17.5062 27.0092
lfingers 7.12502
lthumb 8.74688 56.808
rfemur -26.8218 -5.70383 12.2468
rtibia 22.9076
rfoot 2.2062 1.75794
rtoes -7.07844
lfemur 4.60202 -5.24347 -28.1357
ltibia 19.6526
lfoot -1.07782 -10.6617
ltoes -23.4789
4070
root -6.73977 18.1945 13.611 161.169 252.715 -517.932
lowerback 11.2007 1.73762 -1.9657
upperback 1.58343 2.0143 -0.151032
thorax -4.68512 1.00687 0.647534
lowerneck -14.5873 -4.18621 -12.3591
upperneck 37.5637 -5.43803 4.76162
head 16.4557 -3.73853 3.18995
rclavicle 7.45443e-014 -6.36111e-015
rhumerus -29.7069 -9.579 -81.7918
rradius 43.5733
rwrist 0.479126
rhand -16.0022 8.63246
rfingers 7.12502
rthumb 10.198 -21.1004
lclavicle 7.45443e-014 -6.36111e-015
lhumerus -39.1717 7.385 86.3037
lradius 34.4401
lwrist -5.11556
lhand -17.3164 26.9948
lfingers 7.12502
lthumb 8.93007 56.7858
rfemur -27.169 -6.11625 12.1657
rtibia 23.4717
rfoot 0.794038 3.01771
rtoes -13.5847
lfemur 4.33238 -4.98935 -28.2743
ltibia 19.4735
lfoot -1.2817 -10.7158
ltoes -23.7966
4071
root -6.62292 18.1979 13.6136 160.236 253.149 -517.023
lowerback 11.3355 1.7651 -2.27528
upperback 1.59602 2.0084 -0.144013
thorax -4.75756 1.00895 0.826198
lowerneck -14.8195 -4.05333 -12.1579
upperneck 37.7593 -5.21954 4.58992
head 16.5723 -3.64983 3.11919
rclavicle -7.196e-014 2.38542e-015
rhumerus -29.6919 -9.75301 -81.8458
rradius 43.5152
rwrist 0.808615
rhand -15.8539 8.74689
rfingers 7.12502
rthumb 10.3411 -20.9789
lclavicle -7.196e-014 2.38542e-015
lhumerus -39.0262 7.08681 86.5551
lradius 34.6068
lwrist -5.04742
lhand -17.3146 26.5286
lfingers 7.12502
lthumb 8.93177 56.3195
rfemur -27.524 -6.48021 12.0778
rtibia 24.2545
rfoot -0.205417 4.40324
rtoes -15.0035
lfemur 4.08606 -4.65022 -28.4754
ltibia 19.3328
lfoot -1.40309 -10.6352
ltoes -24.2459
